#!OML:ASF F:\VICON\USERDATA\INSTALL\rory3\rory3.ASF
:FULLY-SPECIFIED
:DEGREES
63
root 1.2206100806279667 17.918836936665095 44.42342158438538 -4.235075612432818 1.56551009092901 -5.687227398651788
lfemur -15.97450612318417 -2.511752244052678 -17.234836304755685
ltibia 23.422406334986906
lfoot -5.700501188531396 -3.592917537372219
ltoes -14.821899479783033
rfemur -8.882470982298743 1.4508215107314997 29.02787831169397
rtibia 47.65575918451272
rfoot -4.500501818760375 -11.876480365098736
rtoes 8.309002371048866
lowerback nan 0.7715347062359386 3.8403721480342554
upperback -0.2843290626720103 1.9220425329840993 1.7981189879378252
thorax -5.853324530777451 0.9352967369815822 -0.9413341939753825
lowerneck -16.25932978177118 -3.9738721674862307 -1.7648297534487976
upperneck 21.686142299467793 -5.57933577117265 2.1635533978267993
head 9.769171609198091 -2.4565188722371327 0.287835967243471
lclavicle -2.5729668858244025e-15 -2.782633911712892e-15
lhumerus -31.227432780213345 2.8161800447446277 82.25593079191937
lradius 28.08067829477879
lwrist 9.973170584904965
lhand -29.726506687023072 18.581637448386743
lfingers nan
lthumb -2.9824521380960403 48.61682848994918
rclavicle -2.5475792407518555e-15 -2.782123024547978e-15
rhumerus -27.234429065390373 -16.46979745189881 -75.76547580612204
rradius 32.98064643375372
rwrist 1.6885114729573418
rhand -17.468770754906117 nan
rfingers nan
rthumb 8.756802531072154 -7.25018459444586
64
root 1.2141014018612113 17.893758480411094 45.73560477404779 -4.470292099849452 2.0640171198997717 -4.227193670413317
lfemur -13.832815680494182 -2.794143861483198 -19.07856414665611
ltibia 22.301095677019227
lfoot -5.9215800161509415 -4.513936930737105
ltoes -13.240926353988254
rfemur -10.43829942048099 0.3243287869210536 27.017296324451383
rtibia 51.030010193200525
rfoot -5.081351527745001 -11.247401576443114
rtoes 8.409991972153716
lowerback nan 0.5261116320022735 2.502747752017353
upperback -0.20114916485527717 1.3943082978303634 1.5974878986317678
thorax -5.867167232627409 0.7074016795276512 -0.45319127207902343
lowerneck -16.33826999146497 -3.9744919567211325 -1.7714974320247325
upperneck 21.607532087446323 -5.583194529180661 2.3248975530091855
head 9.752914053671143 -2.4463011323538533 0.34400022847854084
lclavicle -2.57299094835836e-15 -2.7814063969642832e-15
lhumerus -29.948578888889603 1.8172819066847983 82.14053867222167
lradius 28.615541651926012
lwrist 9.714112799268689
lhand -29.707731612748976 18.47370688273239
lfingers nan
lthumb -2.9369046080940033 48.61545950645437
rclavicle -2.5517943626903896e-15 -2.781940494909561e-15
rhumerus -27.68882646005708 -16.470962752960983 -76.48338479620627
rradius 32.520507695873846
rwrist 2.6133084766614636
rhand -17.477602374259643 nan
rfingers nan
rthumb 8.797872024264878 -6.868297340794038
65
root 1.2156500633580491 17.87163348815911 47.41957289757202 -4.520344557203989 2.65397525027615 -3.1566490110008285
lfemur -11.597548175376158 -3.1482390290743174 -20.620916207332613
ltibia 22.415302014432292
lfoot -6.972542488251246 -5.257900587994145
ltoes -11.512114557511858
rfemur -13.40663659985977 -0.8442785644966211 24.883303343776575
rtibia 54.43751280178391
rfoot -5.781678133369184 -10.205086185227428
rtoes 7.901155983150001
lowerback nan 0.27250014509006326 1.5441385630283992
upperback -0.1401838164735457 0.8717273443308011 1.4356016368470705
thorax -5.919146279958227 0.45277042657206357 -0.034671272599444025
lowerneck -16.44866144909969 -3.9638112340047136 -1.750227206685877
upperneck 21.503694032045917 -5.569145918361248 2.456105185763896
head 9.736194784442677 -2.4303321711633012 0.3909778408142437
lclavicle -2.57205205682672e-15 -2.7790275488207383e-15
lhumerus -28.611507763397697 0.7695991120341814 81.95486660524256
lradius 29.128603057429594
lwrist 9.195033516013247
lhand -29.644881996744942 18.51786259203038
lfingers nan
lthumb -2.8807948053361363 48.658015769423905
rclavicle -2.5546479211228632e-15 -2.7793530040079663e-15
rhumerus -28.271254143918533 -16.693001534772336 -77.19510529592439
rradius 31.95665116489125
rwrist 3.670642190318656
rhand -17.509391827757057 nan
rfingers nan
rthumb 8.758327269315675 -6.696428434935179
66
root 1.2335432047085724 17.861293264084104 50.29379595386457 -4.450034241085541 3.199530891454142 -1.5800674198572895
lfemur -9.004426090408117 -3.5492014954512294 -22.59651505566994
ltibia 22.895944137266383
lfoot -8.844788767262013 -4.714282989689136
ltoes -9.312456343422124
rfemur -16.063021428504605 -1.8408818736033354 22.709096689947444
rtibia 57.02583602494346
rfoot -6.613558838659779 -9.112061034332505
rtoes 6.831419283735304
lowerback nan -0.09445572620118217 0.14292696857809317
upperback -0.07661949675710451 0.14007958023932804 1.1950734408364174
thorax -5.973356892368881 0.13758394246220923 0.7023573825723043
lowerneck -16.60098493568367 -3.9319026892359323 -1.7140565056593404
upperneck 21.413239658531968 -5.52025202432544 2.5442970818876542
head 9.72841186875328 -2.405334476197874 0.4272038561752254
lclavicle -2.57056516473895e-15 -2.7763450909741666e-15
lhumerus -27.249163890381244 -0.18817040680238017 81.71211214155086
lradius 29.595225299817095
lwrist 8.518886787988553
lhand -29.650844624628125 18.400275148172646
lfingers nan
lthumb -2.825312602057574 48.68920374879136
rclavicle -2.554480948062409e-15 -2.77522258571813e-15
rhumerus -28.99151939518977 -17.101864953064972 -77.850302920357
rradius 31.374171596696257
rwrist 4.3378287642599505
rhand -17.55188051776425 nan
rfingers nan
rthumb 8.747955771910732 -6.72788053432433
